<?xml version="1.0" encoding="UTF-8" standalone="no"?>
<!DOCTYPE svg PUBLIC "-//W3C//DTD SVG 1.1//EN"
 "http://www.w3.org/Graphics/SVG/1.1/DTD/svg11.dtd">
<!-- Generated by graphviz version 2.40.1 (20161225.0304)
 -->
<!-- Title: %3 Pages: 1 -->
<svg width="698pt" height="404pt"
 viewBox="0.00 0.00 698.28 404.00" xmlns="http://www.w3.org/2000/svg" xmlns:xlink="http://www.w3.org/1999/xlink">
<g id="graph0" class="graph" transform="scale(1 1) rotate(0) translate(4 400)">
<title>%3</title>
<polygon fill="#ffffff" stroke="transparent" points="-4,4 -4,-400 694.2798,-400 694.2798,4 -4,4"/>
<!-- [root] aws_instance.web -->
<g id="node1" class="node">
<title>[root] aws_instance.web</title>
<polygon fill="none" stroke="#000000" points="341.7798,-180 226.7798,-180 226.7798,-144 341.7798,-144 341.7798,-180"/>
<text text-anchor="middle" x="284.2798" y="-158.3" font-family="Times,serif" font-size="14.00" fill="#000000">aws_instance.web</text>
</g>
<!-- [root] aws_security_group.allow_ssh -->
<g id="node4" class="node">
<title>[root] aws_security_group.allow_ssh</title>
<polygon fill="none" stroke="#000000" points="317.7798,-108 134.7798,-108 134.7798,-72 317.7798,-72 317.7798,-108"/>
<text text-anchor="middle" x="226.2798" y="-86.3" font-family="Times,serif" font-size="14.00" fill="#000000">aws_security_group.allow_ssh</text>
</g>
<!-- [root] aws_instance.web&#45;&gt;[root] aws_security_group.allow_ssh -->
<g id="edge1" class="edge">
<title>[root] aws_instance.web&#45;&gt;[root] aws_security_group.allow_ssh</title>
<path fill="none" stroke="#000000" d="M269.6439,-143.8314C262.9637,-135.5386 254.9229,-125.557 247.5894,-116.4533"/>
<polygon fill="#000000" stroke="#000000" points="250.1117,-114.0052 241.1127,-108.4133 244.6604,-118.3965 250.1117,-114.0052"/>
</g>
<!-- [root] var.hosts -->
<g id="node8" class="node">
<title>[root] var.hosts</title>
<polygon fill="none" stroke="#000000" points="394.7798,-108 335.7798,-108 335.7798,-72 400.7798,-72 400.7798,-102 394.7798,-108"/>
<polyline fill="none" stroke="#000000" points="394.7798,-108 394.7798,-102 "/>
<polyline fill="none" stroke="#000000" points="400.7798,-102 394.7798,-102 "/>
<text text-anchor="middle" x="368.2798" y="-86.3" font-family="Times,serif" font-size="14.00" fill="#000000">var.hosts</text>
</g>
<!-- [root] aws_instance.web&#45;&gt;[root] var.hosts -->
<g id="edge2" class="edge">
<title>[root] aws_instance.web&#45;&gt;[root] var.hosts</title>
<path fill="none" stroke="#000000" d="M305.4765,-143.8314C315.7232,-135.0485 328.1801,-124.3712 339.2895,-114.8489"/>
<polygon fill="#000000" stroke="#000000" points="341.775,-117.3282 347.0898,-108.1628 337.2194,-112.0134 341.775,-117.3282"/>
</g>
<!-- [root] aws_key_pair.key_ssh -->
<g id="node2" class="node">
<title>[root] aws_key_pair.key_ssh</title>
<polygon fill="none" stroke="#000000" points="557.7798,-252 418.7798,-252 418.7798,-216 557.7798,-216 557.7798,-252"/>
<text text-anchor="middle" x="488.2798" y="-230.3" font-family="Times,serif" font-size="14.00" fill="#000000">aws_key_pair.key_ssh</text>
</g>
<!-- [root] provider.aws -->
<g id="node7" class="node">
<title>[root] provider.aws</title>
<polygon fill="none" stroke="#000000" points="327.2798,-36 247.3464,-18 327.2798,0 407.2132,-18 327.2798,-36"/>
<text text-anchor="middle" x="327.2798" y="-14.3" font-family="Times,serif" font-size="14.00" fill="#000000">provider.aws</text>
</g>
<!-- [root] aws_key_pair.key_ssh&#45;&gt;[root] provider.aws -->
<g id="edge3" class="edge">
<title>[root] aws_key_pair.key_ssh&#45;&gt;[root] provider.aws</title>
<path fill="none" stroke="#000000" d="M485.5518,-215.8379C479.852,-183.4462 463.9428,-115.0735 426.2798,-72 410.9964,-54.5211 388.6272,-41.6479 369.0172,-32.8642"/>
<polygon fill="#000000" stroke="#000000" points="370.2272,-29.5754 359.6553,-28.8784 367.4851,-36.016 370.2272,-29.5754"/>
</g>
<!-- [root] aws_security_group.allow_http -->
<g id="node3" class="node">
<title>[root] aws_security_group.allow_http</title>
<polygon fill="none" stroke="#000000" points="400.7798,-252 213.7798,-252 213.7798,-216 400.7798,-216 400.7798,-252"/>
<text text-anchor="middle" x="307.2798" y="-230.3" font-family="Times,serif" font-size="14.00" fill="#000000">aws_security_group.allow_http</text>
</g>
<!-- [root] aws_security_group.allow_http&#45;&gt;[root] provider.aws -->
<g id="edge4" class="edge">
<title>[root] aws_security_group.allow_http&#45;&gt;[root] provider.aws</title>
<path fill="none" stroke="#000000" d="M329.3233,-215.8167C354.4876,-193.4793 394.2369,-152.9733 410.2798,-108 415.6555,-92.9301 417.9084,-86.0643 410.2798,-72 400.9435,-54.7874 383.4834,-42.2014 366.9771,-33.5325"/>
<polygon fill="#000000" stroke="#000000" points="368.4827,-30.3727 357.9628,-29.115 365.4023,-36.6585 368.4827,-30.3727"/>
</g>
<!-- [root] aws_security_group.allow_ssh&#45;&gt;[root] provider.aws -->
<g id="edge5" class="edge">
<title>[root] aws_security_group.allow_ssh&#45;&gt;[root] provider.aws</title>
<path fill="none" stroke="#000000" d="M251.7664,-71.8314C266.3239,-61.4537 284.5915,-48.4313 299.5128,-37.7943"/>
<polygon fill="#000000" stroke="#000000" points="301.7472,-40.4998 307.8583,-31.845 297.6838,-34.7998 301.7472,-40.4998"/>
</g>
<!-- [root] aws_security_group.allow_tls -->
<g id="node5" class="node">
<title>[root] aws_security_group.allow_tls</title>
<polygon fill="none" stroke="#000000" points="195.7798,-252 16.7798,-252 16.7798,-216 195.7798,-216 195.7798,-252"/>
<text text-anchor="middle" x="106.2798" y="-230.3" font-family="Times,serif" font-size="14.00" fill="#000000">aws_security_group.allow_tls</text>
</g>
<!-- [root] aws_security_group.allow_tls&#45;&gt;[root] provider.aws -->
<g id="edge6" class="edge">
<title>[root] aws_security_group.allow_tls&#45;&gt;[root] provider.aws</title>
<path fill="none" stroke="#000000" d="M102.4888,-215.8833C96.7342,-182.9507 89.8945,-112.9057 125.2798,-72 143.7981,-50.5927 214.716,-35.2278 267.3202,-26.4878"/>
<polygon fill="#000000" stroke="#000000" points="267.9321,-29.9344 277.2439,-24.8806 266.813,-23.0244 267.9321,-29.9344"/>
</g>
<!-- [root] output.public_dns -->
<g id="node6" class="node">
<title>[root] output.public_dns</title>
<polygon fill="none" stroke="#000000" points="684.2798,-252 576.2798,-252 576.2798,-216 690.2798,-216 690.2798,-246 684.2798,-252"/>
<polyline fill="none" stroke="#000000" points="684.2798,-252 684.2798,-246 "/>
<polyline fill="none" stroke="#000000" points="690.2798,-246 684.2798,-246 "/>
<text text-anchor="middle" x="633.2798" y="-230.3" font-family="Times,serif" font-size="14.00" fill="#000000">output.public_dns</text>
</g>
<!-- [root] output.public_dns&#45;&gt;[root] aws_instance.web -->
<g id="edge11" class="edge">
<title>[root] output.public_dns&#45;&gt;[root] aws_instance.web</title>
<path fill="none" stroke="#000000" d="M576.1112,-218.1166C573.1298,-217.3797 570.1726,-216.6694 567.2798,-216 494.1866,-199.0861 409.5934,-183.4544 352.0688,-173.4089"/>
<polygon fill="#000000" stroke="#000000" points="352.4599,-169.9245 342.0083,-171.6608 351.2615,-176.8212 352.4599,-169.9245"/>
</g>
<!-- [root] meta.count&#45;boundary (EachMode fixup) -->
<g id="node9" class="node">
<title>[root] meta.count&#45;boundary (EachMode fixup)</title>
<ellipse fill="none" stroke="#000000" cx="447.2798" cy="-306" rx="176.5689" ry="18"/>
<text text-anchor="middle" x="447.2798" y="-302.3" font-family="Times,serif" font-size="14.00" fill="#000000">[root] meta.count&#45;boundary (EachMode fixup)</text>
</g>
<!-- [root] meta.count&#45;boundary (EachMode fixup)&#45;&gt;[root] aws_key_pair.key_ssh -->
<g id="edge7" class="edge">
<title>[root] meta.count&#45;boundary (EachMode fixup)&#45;&gt;[root] aws_key_pair.key_ssh</title>
<path fill="none" stroke="#000000" d="M457.6258,-287.8314C462.2035,-279.7925 467.6849,-270.1666 472.7386,-261.2918"/>
<polygon fill="#000000" stroke="#000000" points="475.8875,-262.8351 477.7945,-252.4133 469.8046,-259.3712 475.8875,-262.8351"/>
</g>
<!-- [root] meta.count&#45;boundary (EachMode fixup)&#45;&gt;[root] aws_security_group.allow_http -->
<g id="edge8" class="edge">
<title>[root] meta.count&#45;boundary (EachMode fixup)&#45;&gt;[root] aws_security_group.allow_http</title>
<path fill="none" stroke="#000000" d="M412.673,-288.2022C394.2189,-278.7115 371.311,-266.9304 351.571,-256.7783"/>
<polygon fill="#000000" stroke="#000000" points="352.9545,-253.5541 342.4609,-252.0931 349.753,-259.7792 352.9545,-253.5541"/>
</g>
<!-- [root] meta.count&#45;boundary (EachMode fixup)&#45;&gt;[root] aws_security_group.allow_tls -->
<g id="edge9" class="edge">
<title>[root] meta.count&#45;boundary (EachMode fixup)&#45;&gt;[root] aws_security_group.allow_tls</title>
<path fill="none" stroke="#000000" d="M370.3275,-289.752C320.3054,-279.1902 254.724,-265.3431 201.4345,-254.0913"/>
<polygon fill="#000000" stroke="#000000" points="202.1411,-250.6634 191.6337,-252.022 200.6949,-257.5124 202.1411,-250.6634"/>
</g>
<!-- [root] meta.count&#45;boundary (EachMode fixup)&#45;&gt;[root] output.public_dns -->
<g id="edge10" class="edge">
<title>[root] meta.count&#45;boundary (EachMode fixup)&#45;&gt;[root] output.public_dns</title>
<path fill="none" stroke="#000000" d="M492.3052,-288.5708C517.8877,-278.6679 550.1397,-266.1833 577.3367,-255.6554"/>
<polygon fill="#000000" stroke="#000000" points="578.6644,-258.8946 586.7266,-252.0206 576.1374,-252.3666 578.6644,-258.8946"/>
</g>
<!-- [root] provider.aws (close) -->
<g id="node10" class="node">
<title>[root] provider.aws (close)</title>
<ellipse fill="none" stroke="#000000" cx="147.2798" cy="-306" rx="105.0817" ry="18"/>
<text text-anchor="middle" x="147.2798" y="-302.3" font-family="Times,serif" font-size="14.00" fill="#000000">[root] provider.aws (close)</text>
</g>
<!-- [root] provider.aws (close)&#45;&gt;[root] aws_instance.web -->
<g id="edge12" class="edge">
<title>[root] provider.aws (close)&#45;&gt;[root] aws_instance.web</title>
<path fill="none" stroke="#000000" d="M89.6837,-290.9305C55.6168,-280.7237 17.228,-266.4998 7.2798,-252 -1.7721,-238.8067 -2.8941,-228.3488 7.2798,-216 33.2784,-184.4437 143.114,-171.0815 216.4206,-165.6028"/>
<polygon fill="#000000" stroke="#000000" points="216.7848,-169.0858 226.5095,-164.881 216.2852,-162.1037 216.7848,-169.0858"/>
</g>
<!-- [root] provider.aws (close)&#45;&gt;[root] aws_key_pair.key_ssh -->
<g id="edge13" class="edge">
<title>[root] provider.aws (close)&#45;&gt;[root] aws_key_pair.key_ssh</title>
<path fill="none" stroke="#000000" d="M215.7664,-292.2893C266.2987,-282.0794 337.001,-267.6 408.4288,-252.1636"/>
<polygon fill="#000000" stroke="#000000" points="409.4782,-255.5175 418.5104,-249.9794 407.996,-248.6762 409.4782,-255.5175"/>
</g>
<!-- [root] provider.aws (close)&#45;&gt;[root] aws_security_group.allow_http -->
<g id="edge14" class="edge">
<title>[root] provider.aws (close)&#45;&gt;[root] aws_security_group.allow_http</title>
<path fill="none" stroke="#000000" d="M184.7927,-289.1192C206.6458,-279.2853 234.4575,-266.77 258.0546,-256.1513"/>
<polygon fill="#000000" stroke="#000000" points="259.5221,-259.3291 267.205,-252.0336 256.6495,-252.9456 259.5221,-259.3291"/>
</g>
<!-- [root] provider.aws (close)&#45;&gt;[root] aws_security_group.allow_tls -->
<g id="edge15" class="edge">
<title>[root] provider.aws (close)&#45;&gt;[root] aws_security_group.allow_tls</title>
<path fill="none" stroke="#000000" d="M136.9338,-287.8314C132.3561,-279.7925 126.8746,-270.1666 121.8209,-261.2918"/>
<polygon fill="#000000" stroke="#000000" points="124.755,-259.3712 116.7651,-252.4133 118.6721,-262.8351 124.755,-259.3712"/>
</g>
<!-- [root] root -->
<g id="node11" class="node">
<title>[root] root</title>
<ellipse fill="none" stroke="#000000" cx="297.2798" cy="-378" rx="47.3916" ry="18"/>
<text text-anchor="middle" x="297.2798" y="-374.3" font-family="Times,serif" font-size="14.00" fill="#000000">[root] root</text>
</g>
<!-- [root] root&#45;&gt;[root] meta.count&#45;boundary (EachMode fixup) -->
<g id="edge16" class="edge">
<title>[root] root&#45;&gt;[root] meta.count&#45;boundary (EachMode fixup)</title>
<path fill="none" stroke="#000000" d="M326.915,-363.7751C348.1889,-353.5636 377.2632,-339.608 401.5072,-327.9708"/>
<polygon fill="#000000" stroke="#000000" points="403.0355,-331.1196 410.5362,-323.6369 400.0063,-324.809 403.0355,-331.1196"/>
</g>
<!-- [root] root&#45;&gt;[root] provider.aws (close) -->
<g id="edge17" class="edge">
<title>[root] root&#45;&gt;[root] provider.aws (close)</title>
<path fill="none" stroke="#000000" d="M267.6446,-363.7751C245.9921,-353.3819 216.2592,-339.1101 191.7628,-327.3519"/>
<polygon fill="#000000" stroke="#000000" points="193.1883,-324.1538 182.6585,-322.9818 190.1592,-330.4645 193.1883,-324.1538"/>
</g>
</g>
</svg>
